<?xml version="1.0" encoding="utf-8"?>
<!-- Generator: Adobe Illustrator 21.0.2, SVG Export Plug-In . SVG Version: 6.00 Build 0)  -->
<svg version="1.1" id="Layer_1" xmlns="http://www.w3.org/2000/svg" xmlns:xlink="http://www.w3.org/1999/xlink" x="0px" y="0px"
	 viewBox="0 0 500 300" style="enable-background:new 0 0 500 300;" xml:space="preserve">
<style type="text/css">
	.st0{fill:#FFFFFF;stroke:#000000;stroke-miterlimit:10;}
</style>
<path class="st0" d="M481.1,293.5H17.6c-6.6,0-12-5.4-12-12V18c0-6.6,5.4-12,12-12h463.5c6.6,0,12,5.4,12,12v263.5
	C493.1,288.1,487.7,293.5,481.1,293.5z"/>
<g>
	<g>
		<path d="M112.8,112.2l-10.1-25.9H70l-10,25.9h-9.6l32.2-81.7h8l32,81.7H112.8z M99.7,77.8l-9.5-25.2c-1.2-3.2-2.5-7.1-3.8-11.7
			c-0.8,3.6-2,7.5-3.5,11.7l-9.6,25.2H99.7z"/>
		<path d="M95.8,238.8H50.4v-81.4h45.4v8.4H59.9v26.2h33.7v8.3H59.9v29.9h35.9V238.8z"/>
	</g>
	<g>
		<path d="M168,30.5h23c10.8,0,18.6,1.6,23.4,4.8c4.8,3.2,7.2,8.3,7.2,15.3c0,4.8-1.3,8.8-4,11.9c-2.7,3.1-6.6,5.2-11.8,6.1v0.6
			c12.4,2.1,18.5,8.6,18.5,19.5c0,7.3-2.5,13-7.4,17c-4.9,4.1-11.8,6.1-20.6,6.1H168V30.5z M177.5,65.4h15.6c6.7,0,11.5-1,14.4-3.1
			c2.9-2.1,4.4-5.6,4.4-10.6c0-4.6-1.6-7.9-4.9-9.9c-3.3-2-8.5-3-15.6-3h-13.9V65.4z M177.5,73.4v30.4h17c6.6,0,11.5-1.3,14.8-3.8
			c3.3-2.5,5-6.5,5-11.9c0-5-1.7-8.8-5.1-11.1c-3.4-2.4-8.6-3.6-15.5-3.6H177.5z"/>
		<path d="M177.5,239.6H168v-81.4h45.4v8.4h-35.9v29.8h33.7v8.4h-33.7V239.6z"/>
	</g>
	<g>
		<path d="M311.2,39c-8.9,0-16,3-21.2,8.9c-5.2,6-7.8,14.1-7.8,24.5c0,10.7,2.5,18.9,7.5,24.7c5,5.8,12.1,8.7,21.3,8.7
			c5.7,0,12.2-1,19.4-3.1v8.3c-5.6,2.1-12.6,3.2-20.9,3.2c-12,0-21.2-3.6-27.7-10.9c-6.5-7.3-9.8-17.6-9.8-31c0-8.4,1.6-15.7,4.7-22
			c3.1-6.3,7.7-11.2,13.6-14.6c5.9-3.4,12.9-5.1,20.9-5.1c8.5,0,16,1.6,22.4,4.7l-4,8.1C323.5,40.4,317.4,39,311.2,39z"/>
		<path d="M312.1,196.6h27.7v39.6c-4.3,1.4-8.7,2.4-13.1,3.1s-9.6,1.1-15.5,1.1c-12.3,0-21.9-3.7-28.8-11
			c-6.9-7.3-10.3-17.6-10.3-30.8c0-8.5,1.7-15.9,5.1-22.2s8.3-11.2,14.7-14.6c6.4-3.4,13.9-5,22.4-5c8.7,0,16.8,1.6,24.3,4.8
			l-3.7,8.3c-7.3-3.1-14.4-4.7-21.2-4.7c-9.9,0-17.6,3-23.2,8.9s-8.3,14.1-8.3,24.5c0,11,2.7,19.3,8,25c5.4,5.7,13.2,8.5,23.6,8.5
			c5.6,0,11.2-0.6,16.5-1.9v-25h-18.2V196.6z"/>
	</g>
	<g>
		<path d="M448.2,70.4c0,13.4-3.6,23.7-10.9,30.8c-7.3,7.1-17.8,10.7-31.5,10.7h-22.5V30.5h24.9c12.7,0,22.5,3.5,29.5,10.5
			S448.2,57.8,448.2,70.4z M438.1,70.8c0-10.6-2.7-18.6-8-24c-5.3-5.4-13.2-8.1-23.7-8.1h-13.7v65h11.5c11.3,0,19.8-2.8,25.4-8.3
			C435.3,89.8,438.1,81.6,438.1,70.8z"/>
		<path d="M445,238.1h-9.5v-38.3h-42.9v38.3h-9.5v-81.4h9.5v34.6h42.9v-34.6h9.5V238.1z"/>
	</g>
</g>
</svg>
